<svg version="1.1" id="Layer_1" xmlns="http://www.w3.org/2000/svg" xmlns:xlink="http://www.w3.org/1999/xlink" x="0px" y="0px"
	 width="100%" viewBox="0 0 307 56" enable-background="new 0 0 307 56" xml:space="preserve">
<path fill="#FCFCFD" opacity="1.000000" stroke="none" 
	d="
M219,57 
	C146,57 73.5,57 1,57 
	C1,38.33 1,19.67 1,1 
	C103.33,1 205.67,1 308,1 
	C308,19.67 308,38.33 308,57 
	C278.5,57 249,57 219,57 
M22.11,5.97 
	C20.52,5.97 18.93,5.97 17.19,5.97 
	C17.19,18.89 17.19,31.4 17.43,44.69 
	C19.5,44.69 21.57,44.69 24.13,44.69 
	C24.13,39.17 24.13,34.14 24.13,28.85 
	C30.07,28.85 35.49,28.85 40.89,28.85 
	C42.11,24.49 40.61,22.74 36.34,22.97 
	C33.04,23.16 29.7,23.23 26.43,22.87 
	C25.46,22.76 24.67,21.02 23.97,19.35 
	C23.92,18.89 23.86,18.43 23.92,17.11 
	C23.94,15.38 23.95,13.65 24.89,11.74 
	C30.1,11.73 35.31,11.81 40.51,11.62 
	C41.57,11.58 42.6,10.52 44.08,9.29 
	C44.08,8.53 44.07,7.78 43.95,6.99 
	C43.95,6.99 43.98,6.95 43.47,7.43 
	C43.28,7.29 43.09,7.15 42.67,6.16 
	C36.11,6.15 29.56,6.15 22.11,5.97 
M151.83,30.33 
	C151.83,30.33 151.64,30.29 151.68,31.06 
	C153.33,35.17 154.84,39.35 156.77,43.32 
	C157.21,44.24 159.14,44.85 160.36,44.81 
	C160.97,44.79 161.52,42.98 162.75,41.68 
	C164.31,36.82 165.88,31.95 167.76,26.47 
	C168.89,22.83 170.03,19.19 171.17,15.55 
	C166.78,14.34 164.18,15.28 163.66,19.89 
	C163.43,21.96 162.66,23.97 161.88,26.73 
	C161.07,29.4 160.26,32.08 159.14,35.79 
	C156.86,29.17 154.94,23.59 152.97,17.27 
	C150.92,14.15 147.95,13.59 146.39,16.9 
	C144.32,21.28 143.52,26.25 141.95,31.62 
	C140.41,34.68 138.69,37.66 137.45,40.83 
	C137.06,41.82 137.7,44.19 138.35,44.39 
	C139.67,44.81 142.46,44.55 142.66,43.93 
	C144.36,38.69 145.61,33.29 147.09,27.71 
	C147.23,27.49 147.31,27.25 147.95,26.46 
	C148.98,27.24 150.01,28.03 150.97,29.41 
	C151.2,29.69 151.42,29.98 151.83,30.33 
M56.09,43.04 
	C56.09,31.67 56.13,20.29 56.06,8.92 
	C56.05,7.66 55.39,6.41 54.26,5.01 
	C52.89,5.36 51.51,5.71 49.94,6.97 
	C49.99,19.29 50.05,31.62 50.27,44.72 
	C52.14,44.46 54.02,44.21 56.09,43.04 
M131.89,25.06 
	C133.98,25.06 136.08,25.06 138.86,25.06 
	C137.61,22.09 137.12,19.9 135.89,18.3 
	C134.79,16.87 132.85,16.09 131.29,15.03 
	C130.46,16.66 129.64,18.3 128.17,19.67 
	C126.78,18.66 125.5,17.45 123.99,16.68 
	C120.09,14.69 116.12,12.44 111.18,15.91 
	C106.09,15.82 101.79,19.35 99.98,25.1 
	C97.37,33.37 101.2,41.59 109.34,44.29 
	C116.99,46.82 126.9,45.43 131.2,33.78 
	C131.17,30.88 131.15,27.97 131.89,25.06 
M268.07,5.95 
	C268.01,18.65 267.94,31.35 268.24,44.77 
	C270.04,44.77 271.85,44.77 274.02,44.77 
	C274.02,41.74 274.02,38.87 274.58,35.59 
	C275.45,34.55 276.32,33.51 277.05,32.63 
	C283.16,36.55 283.33,47.39 293.92,44.54 
	C290.58,39.79 287.73,34.87 283.99,30.76 
	C281.64,28.18 282.55,27.11 284.3,25.23 
	C287.11,22.22 289.74,19.03 292.67,15.64 
	C288.47,14.39 286,15.24 283.66,18.11 
	C280.77,21.67 277.25,24.73 273.76,27.28 
	C273.84,21.45 274.01,15.61 273.96,9.78 
	C273.93,6.62 272.92,4.16 268.07,5.95 
M237.31,16.32 
	C235.87,15.81 234.42,15.3 232.46,14.61 
	C232.46,24.7 232.42,33.79 232.52,42.87 
	C232.53,43.52 233.49,44.16 234.89,44.94 
	C236.15,44.94 237.42,44.94 239,44.94 
	C239,39.41 238.97,34.28 239.01,29.16 
	C239.04,23.65 241.83,20.25 246.18,20.3 
	C250.59,20.35 252.92,23.24 252.96,28.86 
	C253.01,34.12 252.97,39.39 252.97,44.55 
	C255.43,44.55 257.31,44.55 259.3,44.55 
	C259.3,37.87 259.14,31.57 259.35,25.28 
	C259.56,18.87 253.82,15.4 249.08,15.73 
	C245.84,15.96 242.68,17.31 239.45,17.99 
	C238.9,18.1 238.18,17.36 237.31,16.32 
M63.24,33.75 
	C65.37,40.62 69.78,44.72 77.16,45.17 
	C84.55,45.63 90.16,43.28 93.2,35.86 
	C95.38,30.55 95.01,23.62 91.56,20.18 
	C86.38,15.01 78.04,13.31 72.51,15.81 
	C64.97,19.22 62.25,25.03 63.24,33.75 
M208.5,38 
	C214.17,46.98 207.83,49.01 200.87,50.02 
	C201.15,51.11 201.14,51.5 201.33,51.7 
	C205.69,56.44 213.07,54 216.01,46.69 
	C219.64,37.67 223.07,28.58 226.59,19.52 
	C227.69,16.71 226.21,15.53 223.83,16.14 
	C222.41,16.51 220.82,18.09 220.25,19.51 
	C218.14,24.71 216.42,30.07 214.23,36.28 
	C211.15,28.57 208.42,21.78 205.72,15.03 
	C203.32,15.13 201.43,15.22 199.09,15.33 
	C202.26,22.98 205.23,30.14 208.5,38 
M188.85,20.1 
	C191.44,21 194.28,23.63 196.1,18.74 
	C192.36,14.41 187.38,15.96 182.6,15.74 
	C177.41,15.5 175.23,18.28 174.38,22.44 
	C173.45,27 176.67,29.34 180.34,30.87 
	C183.08,32.02 186.05,32.61 188.76,33.82 
	C189.73,34.26 190.65,35.7 190.82,36.8 
	C190.95,37.62 189.84,39.42 189.25,39.43 
	C185.87,39.51 182.22,39.9 179.17,38.79 
	C175.77,37.54 175,37.38 173.69,41.72 
	C179.32,45.18 185.3,46.41 191.66,44.06 
	C195.52,42.63 197.16,39.51 197.17,35.45 
	C197.19,31.49 194.76,29.75 191.36,28.69 
	C188.48,27.79 185.61,26.79 182.83,25.61 
	C181.99,25.26 180.87,24.13 180.93,23.46 
	C181.03,22.34 181.78,20.68 182.65,20.38 
	C184.29,19.83 186.21,20.08 188.85,20.1 
z"/>
<path fill="#3F345A" opacity="1.000000" stroke="none" 
	d="
M63.17,33.34 
	C62.25,25.03 64.97,19.22 72.51,15.81 
	C78.04,13.31 86.38,15.01 91.56,20.18 
	C95.01,23.62 95.38,30.55 93.2,35.86 
	C90.16,43.28 84.55,45.63 77.16,45.17 
	C69.78,44.72 65.37,40.62 63.17,33.34 
M69.8,30.42 
	C70.28,34.64 71.56,38.53 76.16,39.7 
	C81.55,41.07 86.92,37.45 87.92,32.22 
	C89.03,26.41 85.62,21.07 80.22,20.17 
	C74.99,19.3 70.59,23.27 69.8,30.42 
z"/>
<path fill="#42365D" opacity="1.000000" stroke="none" 
	d="
M208.34,37.65 
	C205.23,30.14 202.26,22.98 199.09,15.33 
	C201.43,15.22 203.32,15.13 205.72,15.03 
	C208.42,21.78 211.15,28.57 214.23,36.28 
	C216.42,30.07 218.14,24.71 220.25,19.51 
	C220.82,18.09 222.41,16.51 223.83,16.14 
	C226.21,15.53 227.69,16.71 226.59,19.52 
	C223.07,28.58 219.64,37.67 216.01,46.69 
	C213.07,54 205.69,56.44 201.33,51.7 
	C201.14,51.5 201.15,51.11 200.87,50.02 
	C207.83,49.01 214.17,46.98 208.34,37.65 
z"/>
<path fill="#40365D" opacity="1.000000" stroke="none" 
	d="
M44.06,7.02 
	C44.07,7.78 44.08,8.53 43.42,9.64 
	C37.81,10.02 32.87,9.92 27.94,10.16 
	C26.59,10.22 25.29,11.31 23.97,11.92 
	C23.95,13.65 23.94,15.38 23.6,17.6 
	C23.45,18.73 23.62,19.38 23.8,20.03 
	C24.67,21.02 25.46,22.76 26.43,22.87 
	C29.7,23.23 33.04,23.16 36.34,22.97 
	C40.61,22.74 42.11,24.49 40.89,28.85 
	C35.49,28.85 30.07,28.85 24.13,28.85 
	C24.13,34.14 24.13,39.17 24.13,44.69 
	C21.57,44.69 19.5,44.69 17.59,44 
	C17.75,31.38 17.75,19.45 17.75,7.35 
	C20.07,7.15 21.53,7.03 23.47,6.94 
	C30.26,6.99 36.58,7 42.9,7.01 
	C43.09,7.15 43.28,7.29 43.73,7.23 
	C43.99,7.02 44.06,7.02 44.06,7.02 
z"/>
<path fill="#3E335A" opacity="1.000000" stroke="none" 
	d="
M237.54,17.01 
	C238.18,17.36 238.9,18.1 239.45,17.99 
	C242.68,17.31 245.84,15.96 249.08,15.73 
	C253.82,15.4 259.56,18.87 259.35,25.28 
	C259.14,31.57 259.3,37.87 259.3,44.55 
	C257.31,44.55 255.43,44.55 252.97,44.55 
	C252.97,39.39 253.01,34.12 252.96,28.86 
	C252.92,23.24 250.59,20.35 246.18,20.3 
	C241.83,20.25 239.04,23.65 239.01,29.16 
	C238.97,34.28 239,39.41 239,44.94 
	C237.42,44.94 236.15,44.94 234.44,44.42 
	C234,36.18 234.08,28.47 233.96,20.76 
	C233.91,18.09 234.64,16.64 237.54,17.01 
z"/>
<path fill="#41365D" opacity="1.000000" stroke="none" 
	d="
M188.43,20.05 
	C186.21,20.08 184.29,19.83 182.65,20.38 
	C181.78,20.68 181.03,22.34 180.93,23.46 
	C180.87,24.13 181.99,25.26 182.83,25.61 
	C185.61,26.79 188.48,27.79 191.36,28.69 
	C194.76,29.75 197.19,31.49 197.17,35.45 
	C197.16,39.51 195.52,42.63 191.66,44.06 
	C185.3,46.41 179.32,45.18 173.69,41.72 
	C175,37.38 175.77,37.54 179.17,38.79 
	C182.22,39.9 185.87,39.51 189.25,39.43 
	C189.84,39.42 190.95,37.62 190.82,36.8 
	C190.65,35.7 189.73,34.26 188.76,33.82 
	C186.05,32.61 183.08,32.02 180.34,30.87 
	C176.67,29.34 173.45,27 174.38,22.44 
	C175.23,18.28 177.41,15.5 182.6,15.74 
	C187.38,15.96 192.36,14.41 196.1,18.74 
	C194.28,23.63 191.44,21 188.43,20.05 
z"/>
<path fill="#35A9C7" opacity="1.000000" stroke="none" 
	d="
M131.03,34.46 
	C126.9,45.43 116.99,46.82 109.34,44.29 
	C101.2,41.59 97.37,33.37 99.98,25.1 
	C101.79,19.35 106.09,15.82 111.57,16.25 
	C112.31,17.45 112.66,18.31 112.89,19.48 
	C112.08,20.5 111.52,21.37 110.73,21.87 
	C106.98,24.2 105.19,28.68 106.48,32.76 
	C107.98,37.52 112.19,39.95 117.84,39.33 
	C121.45,38.93 124.55,34.3 125.22,28.93 
	C127.38,30.85 129.2,32.66 131.03,34.46 
z"/>
<path fill="#3D3057" opacity="1.000000" stroke="none" 
	d="
M274,28 
	C277.25,24.73 280.77,21.67 283.66,18.11 
	C286,15.24 288.47,14.39 292.67,15.64 
	C289.74,19.03 287.11,22.22 284.3,25.23 
	C282.55,27.11 281.64,28.18 283.99,30.76 
	C287.73,34.87 290.58,39.79 293.92,44.54 
	C283.33,47.39 283.16,36.55 277.05,32.63 
	C276.32,33.51 275.45,34.55 273.97,35.62 
	C270.99,32.89 271.48,30.36 274,28 
z"/>
<path fill="#3E345B" opacity="1.000000" stroke="none" 
	d="
M273.88,27.64 
	C271.48,30.36 270.99,32.89 273.69,35.83 
	C274.02,38.87 274.02,41.74 274.02,44.77 
	C271.85,44.77 270.04,44.77 268.38,44.13 
	C268.65,30.82 268.78,18.15 268.9,5.47 
	C272.92,4.16 273.93,6.62 273.96,9.78 
	C274.01,15.61 273.84,21.45 273.88,27.64 
z"/>
<path fill="#F6593C" opacity="1.000000" stroke="none" 
	d="
M131.11,34.12 
	C129.2,32.66 127.38,30.85 125.18,28.59 
	C123.67,24.01 121.24,21.42 116.78,20.85 
	C115.48,20.68 114.27,19.75 113.02,19.17 
	C112.66,18.31 112.31,17.45 111.89,16.23 
	C116.12,12.44 120.09,14.69 123.99,16.68 
	C125.5,17.45 126.78,18.66 128.63,20.14 
	C129.76,22.09 130.44,23.58 131.12,25.07 
	C131.15,27.97 131.17,30.88 131.11,34.12 
z"/>
<path fill="#3E345B" opacity="1.000000" stroke="none" 
	d="
M50.14,6.06 
	C51.51,5.71 52.89,5.36 54.63,5.54 
	C55,16.98 54.96,27.88 55.04,38.79 
	C55.05,40.51 55.6,42.23 55.9,43.95 
	C54.02,44.21 52.14,44.46 50.48,44.04 
	C50.8,32.66 50.94,21.95 50.96,11.24 
	C50.96,9.51 50.43,7.78 50.14,6.06 
z"/>
<path fill="#39294F" opacity="1.000000" stroke="none" 
	d="
M167.44,27.09 
	C165.88,31.95 164.31,36.82 162.15,41.64 
	C158.25,37.82 154.95,34.06 151.64,30.29 
	C151.64,30.29 151.83,30.33 151.79,30.02 
	C151.51,29.41 151.28,29.11 151.04,28.82 
	C150.01,28.03 148.98,27.24 147.7,26.28 
	C149.31,23.41 151.16,20.71 153.02,18.01 
	C154.94,23.59 156.86,29.17 159.14,35.79 
	C160.26,32.08 161.07,29.4 162.39,26.42 
	C164.42,26.44 165.93,26.76 167.44,27.09 
z"/>
<path fill="#F25739" opacity="1.000000" stroke="none" 
	d="
M147,27.95 
	C145.61,33.29 144.36,38.69 142.66,43.93 
	C142.46,44.55 139.67,44.81 138.35,44.39 
	C137.7,44.19 137.06,41.82 137.45,40.83 
	C138.69,37.66 140.41,34.68 142.36,31.2 
	C144.18,29.83 145.59,28.89 147,27.95 
z"/>
<path fill="#36ABC7" opacity="1.000000" stroke="none" 
	d="
M147.05,27.83 
	C145.59,28.89 144.18,29.83 142.47,30.87 
	C143.52,26.25 144.32,21.28 146.39,16.9 
	C147.95,13.59 150.92,14.15 152.99,17.64 
	C151.16,20.71 149.31,23.41 147.39,26.55 
	C147.31,27.25 147.23,27.49 147.05,27.83 
z"/>
<path fill="#42365C" opacity="1.000000" stroke="none" 
	d="
M167.6,26.78 
	C165.93,26.76 164.42,26.44 162.52,26.06 
	C162.66,23.97 163.43,21.96 163.66,19.89 
	C164.18,15.28 166.78,14.34 171.17,15.55 
	C170.03,19.19 168.89,22.83 167.6,26.78 
z"/>
<path fill="#392C53" opacity="1.000000" stroke="none" 
	d="
M131.5,25.07 
	C130.44,23.58 129.76,22.09 128.95,20.27 
	C129.64,18.3 130.46,16.66 131.29,15.03 
	C132.85,16.09 134.79,16.87 135.89,18.3 
	C137.12,19.9 137.61,22.09 138.86,25.06 
	C136.08,25.06 133.98,25.06 131.5,25.07 
z"/>
<path fill="#3E2E5F" opacity="1.000000" stroke="none" 
	d="
M237.42,16.66 
	C234.64,16.64 233.91,18.09 233.96,20.76 
	C234.08,28.47 234,36.18 234,44.35 
	C233.49,44.16 232.53,43.52 232.52,42.87 
	C232.42,33.79 232.46,24.7 232.46,14.61 
	C234.42,15.3 235.87,15.81 237.42,16.66 
z"/>
<path fill="#8B2D76" opacity="1.000000" stroke="none" 
	d="
M151.66,30.68 
	C154.95,34.06 158.25,37.82 161.82,41.79 
	C161.52,42.98 160.97,44.79 160.36,44.81 
	C159.14,44.85 157.21,44.24 156.77,43.32 
	C154.84,39.35 153.33,35.17 151.66,30.68 
z"/>
<path fill="#000042" opacity="1.000000" stroke="none" 
	d="
M23,6.9 
	C21.53,7.03 20.07,7.15 17.75,7.35 
	C17.75,19.45 17.75,31.38 17.47,43.61 
	C17.19,31.4 17.19,18.89 17.19,5.97 
	C18.93,5.97 20.52,5.97 22.56,6.25 
	C23,6.52 23,6.9 23,6.9 
z"/>
<path fill="#584F72" opacity="1.000000" stroke="none" 
	d="
M24.43,11.83 
	C25.29,11.31 26.59,10.22 27.94,10.16 
	C32.87,9.92 37.81,10.02 43.2,9.97 
	C42.6,10.52 41.57,11.58 40.51,11.62 
	C35.31,11.81 30.1,11.73 24.43,11.83 
z"/>
<path fill="#00003B" opacity="1.000000" stroke="none" 
	d="
M55.99,43.5 
	C55.6,42.23 55.05,40.51 55.04,38.79 
	C54.96,27.88 55,16.98 55.02,5.61 
	C55.39,6.41 56.05,7.66 56.06,8.92 
	C56.13,20.29 56.09,31.67 55.99,43.5 
z"/>
<path fill="#2A174F" opacity="1.000000" stroke="none" 
	d="
M268.48,5.71 
	C268.78,18.15 268.65,30.82 268.21,43.77 
	C267.94,31.35 268.01,18.65 268.48,5.71 
z"/>
<path fill="#00003A" opacity="1.000000" stroke="none" 
	d="
M50.04,6.51 
	C50.43,7.78 50.96,9.51 50.96,11.24 
	C50.94,21.95 50.8,32.66 50.4,43.66 
	C50.05,31.62 50,19.29 50.04,6.51 
z"/>
<path fill="#000040" opacity="1.000000" stroke="none" 
	d="
M23.47,6.94 
	C23,6.9 23,6.52 23,6.33 
	C29.56,6.15 36.11,6.15 42.79,6.59 
	C36.58,7 30.26,6.99 23.47,6.94 
z"/>
<path fill="#584F72" opacity="1.000000" stroke="none" 
	d="
M23.89,19.69 
	C23.62,19.38 23.45,18.73 23.54,18.03 
	C23.86,18.43 23.92,18.89 23.89,19.69 
z"/>
<path fill="#584F72" opacity="1.000000" stroke="none" 
	d="
M43.99,6.98 
	C43.98,6.95 43.95,6.99 44,7.01 
	C44.06,7.02 43.99,7.02 43.99,6.98 
z"/>
<path fill="#8B2D76" opacity="1.000000" stroke="none" 
	d="
M151.01,29.11 
	C151.28,29.11 151.51,29.41 151.7,29.99 
	C151.42,29.98 151.2,29.69 151.01,29.11 
z"/>
<path fill="#F9FAFB" opacity="1.000000" stroke="none" 
	d="
M69.8,30 
	C70.59,23.27 74.99,19.3 80.22,20.17 
	C85.62,21.07 89.03,26.41 87.92,32.22 
	C86.92,37.45 81.55,41.07 76.16,39.7 
	C71.56,38.53 70.28,34.64 69.8,30 
z"/>
<path fill="#FAFCFC" opacity="1.000000" stroke="none" 
	d="
M112.89,19.48 
	C114.27,19.75 115.48,20.68 116.78,20.85 
	C121.24,21.42 123.67,24.01 124.85,28.47 
	C124.55,34.3 121.45,38.93 117.84,39.33 
	C112.19,39.95 107.98,37.52 106.48,32.76 
	C105.19,28.68 106.98,24.2 110.73,21.87 
	C111.52,21.37 112.08,20.5 112.89,19.48 
z"/>
</svg>