<?xml version="1.0" ?><!DOCTYPE svg  PUBLIC '-//W3C//DTD SVG 1.1//EN'  'http://www.w3.org/Graphics/SVG/1.1/DTD/svg11.dtd'><!-- Uploaded to: SVG Repo, www.svgrepo.com, Generator: SVG Repo Mixer Tools -->
<svg fill="#000000" width="800px" height="800px" viewBox="0 0 32 32" style="fill-rule:evenodd;clip-rule:evenodd;stroke-linejoin:round;stroke-miterlimit:2;" version="1.1" xml:space="preserve" xmlns="http://www.w3.org/2000/svg" xmlns:serif="http://www.serif.com/" xmlns:xlink="http://www.w3.org/1999/xlink"><g id="Icon"/><path d="M30,8c0,-0.552 -0.448,-1 -1,-1l-26,0c-0.552,0 -1,0.448 -1,1l0,14c0,0.552 0.448,1 1,1l26,0c0.552,0 1,-0.448 1,-1l0,-14Zm-2,1l0,12c-0,-0 -24,0 -24,0c0,0 0,-12 0,-12l24,-0Z"/><path d="M19.5,25.143l0,-3.143c0,-0.276 -0.224,-0.5 -0.5,-0.5l-6,0c-0.276,0 -0.5,0.224 -0.5,0.5l-0,3.143c-0,0.276 0.224,0.5 0.5,0.5c0.276,-0 0.5,-0.224 0.5,-0.5l-0,-2.643c0,0 5,0 5,0c0,-0 0,2.643 0,2.643c0,0.276 0.224,0.5 0.5,0.5c0.276,-0 0.5,-0.224 0.5,-0.5Z"/><path d="M6.5,25.643l19,-0c0.276,-0 0.5,-0.224 0.5,-0.5c0,-0.276 -0.224,-0.5 -0.5,-0.5l-19,-0c-0.276,-0 -0.5,0.224 -0.5,0.5c0,0.276 0.224,0.5 0.5,0.5Z"/></svg>